<svg version="1.1" xmlns="http://www.w3.org/2000/svg" xmlns:xlink="http://www.w3.org/1999/xlink" width="800px" height="800px" viewBox="0,0,256,256"><g fill="#ffffff" fill-rule="nonzero" stroke="none" stroke-width="1" stroke-linecap="butt" stroke-linejoin="miter" stroke-miterlimit="10" stroke-dasharray="" stroke-dashoffset="0" font-family="none" font-weight="none" font-size="none" text-anchor="none" style="mix-blend-mode: normal"><g transform="scale(0.5,0.5)"><g><path d="M511.5,155.688l0.125,27.843l-328,241.532l-183.125,-94.641l-0.125,-25.141l183.125,93.516z"></path><path d="M511.844,220.203l0.156,27.828l-328,241.563l-183.141,-94.656l-0.125,-25.157l183.141,93.532z"></path><path d="M162.797,244.844c1.234,-0.906 2.672,-1.625 4.188,-2.172c1.531,-0.531 3.172,-0.891 4.797,-1.047c1.625,-0.172 3.281,-0.125 4.828,0.094c1.547,0.25 3.016,0.672 4.297,1.313c1.281,0.656 2.25,1.438 2.906,2.344c0.641,0.875 1,1.844 1.031,2.859c0.031,1.015 -0.25,2.047 -0.844,3.063c-0.594,1.016 -1.5,2.016 -2.719,2.922c-1.219,0.875 -2.656,1.594 -4.188,2.125c-1.532,0.531 -3.156,0.906 -4.797,1.063c-1.641,0.157 -3.297,0.125 -4.859,-0.094c-1.547,-0.234 -3,-0.656 -4.281,-1.313c-1.281,-0.641 -2.25,-1.438 -2.906,-2.328c-0.656,-0.89 -0.984,-1.875 -1.016,-2.891c-0.031,-1 0.25,-2.047 0.844,-3.063c0.594,-1 1.5,-1.985 2.719,-2.875z"></path><path d="M0,262.203l329.188,-239.797l182.812,91.453l-329.281,241.297zM438.875,102.453l-77.75,-38.938c-4.313,2.359 -9.078,4.25 -14.031,5.656c-4.969,1.422 -10.125,2.328 -15.313,2.766c-5.156,0.406 -10.313,0.313 -15.266,-0.297c-4.953,-0.61 -9.672,-1.766 -13.984,-3.484l-85.219,62.125c8.25,-1.797 16.859,-2.906 25.625,-3.344c8.766,-0.438 17.672,-0.188 26.5,0.75c8.828,0.969 17.563,2.594 25.969,4.953c8.406,2.359 16.5,5.422 24.016,9.203c7.516,3.781 13.969,8.031 19.344,12.594c5.359,4.594 9.656,9.5 12.828,14.594c3.188,5.094 5.25,10.375 6.172,15.703c0.922,5.328 0.703,10.688 -0.688,15.953l85.234,-62.422c-3.594,-2.25 -6.344,-4.859 -8.281,-7.703c-1.937,-2.844 -3.063,-5.906 -3.344,-9.063c-0.281,-3.157 0.25,-6.422 1.609,-9.625c1.36,-3.218 3.563,-6.405 6.579,-9.421M209.766,308.547l85.734,-62.766c-8.281,1.813 -16.938,2.938 -25.719,3.359c-8.813,0.438 -17.75,0.172 -26.625,-0.781c-8.844,-0.953 -17.594,-2.609 -26.031,-4.984c-8.406,-2.375 -16.5,-5.453 -24,-9.25c-7.531,-3.813 -13.969,-8.094 -19.344,-12.688c-5.344,-4.609 -9.625,-9.531 -12.766,-14.625c-3.141,-5.125 -5.172,-10.406 -6.047,-15.719c-0.906,-5.328 -0.656,-10.672 0.781,-15.922l-85.703,62.469c3.547,2.266 6.266,4.906 8.172,7.766c1.906,2.844 2.984,5.938 3.25,9.125c0.25,3.172 -0.313,6.438 -1.719,9.688c-1.406,3.25 -3.625,6.453 -6.688,9.484l77.719,39.516c4.359,-2.406 9.156,-4.313 14.141,-5.734c4.985,-1.421 10.203,-2.359 15.391,-2.766c5.203,-0.406 10.391,-0.328 15.375,0.313c4.969,0.624 9.751,1.796 14.079,3.515M254.688,158.688l-11.375,-9.156l-2.063,0.797c-1.531,0.594 -3.031,1.219 -4.469,1.891c-1.469,0.656 -2.875,1.375 -4.234,2.094c-1.359,0.75 -2.703,1.5 -3.984,2.313c-1.281,0.813 -2.516,1.625 -3.703,2.5c-4.453,3.25 -8.016,6.797 -10.672,10.484c-2.641,3.688 -4.375,7.516 -5.156,11.344c-0.781,3.828 -0.625,7.641 0.516,11.297c1.141,3.688 3.25,7.188 6.375,10.406l-7.75,5.656l10.734,5.422l5.938,-4.344l0.438,0.234l0.438,0.234l0.438,0.25l0.469,0.25l1.156,0.547l1.188,0.547l1.25,0.516l1.344,0.531l-6.188,4.5l10.75,5.438l8.719,-6.375c5.594,0.938 11.422,1.313 17.266,1.125c5.859,-0.156 11.734,-0.875 17.422,-2.094c5.703,-1.219 11.219,-2.953 16.375,-5.141c5.141,-2.188 9.906,-4.828 14.094,-7.891c0.891,-0.656 1.75,-1.328 2.578,-2c0.828,-0.672 1.609,-1.375 2.375,-2.063c0.75,-0.719 1.484,-1.438 2.172,-2.156c0.688,-0.734 1.344,-1.469 1.969,-2.234l0.953,-1.172l-15.109,-7.625l-1.5,2.281c-0.469,0.719 -0.969,1.422 -1.531,2.094c-0.547,0.688 -1.156,1.359 -1.781,2.016c-0.656,0.641 -1.328,1.281 -2.031,1.891c-0.719,0.625 -1.484,1.219 -2.281,1.813c-2.344,1.688 -4.906,3.203 -7.688,4.5c-2.75,1.313 -5.719,2.391 -8.781,3.25c-3.078,0.875 -6.281,1.5 -9.516,1.906c-3.25,0.375 -6.547,0.531 -9.828,0.422l27.344,-20l-8.656,-6.938l-33.474,24.452l-1.313,-0.469l-1.281,-0.5l-1.219,-0.531l-1.203,-0.563l-0.453,-0.25l-0.453,-0.25l-0.422,-0.25l-0.406,-0.25l35.031,-25.594l-8.594,-6.969l-34.391,25.109c-1.266,-2.031 -2,-4.203 -2.234,-6.406c-0.25,-2.203 0,-4.453 0.75,-6.703c0.719,-2.219 1.938,-4.438 3.609,-6.578c1.672,-2.125 3.797,-4.156 6.375,-6.031c0.891,-0.656 1.828,-1.281 2.813,-1.891c0.984,-0.594 2.016,-1.156 3.078,-1.703c1.062,-0.547 2.156,-1.078 3.313,-1.563c1.141,-0.5 2.313,-0.953 3.531,-1.391l2.938,-1.029"></path><path d="M331.156,121.875c1.203,-0.875 2.625,-1.594 4.125,-2.125c1.531,-0.531 3.156,-0.891 4.781,-1.063c1.641,-0.156 3.281,-0.125 4.844,0.094c1.547,0.234 3,0.656 4.297,1.313c1.266,0.625 2.234,1.422 2.891,2.313c0.656,0.875 1,1.844 1.031,2.844c0.063,1.016 -0.219,2.047 -0.813,3.063c-0.578,1 -1.469,1.969 -2.688,2.859c-1.219,0.89 -2.656,1.609 -4.156,2.141c-1.531,0.531 -3.172,0.891 -4.797,1.047c-1.641,0.172 -3.266,0.141 -4.828,-0.094c-1.547,-0.234 -3,-0.672 -4.281,-1.297c-1.281,-0.656 -2.25,-1.438 -2.906,-2.313c-0.656,-0.875 -1.016,-1.859 -1.063,-2.859c-0.031,-1 0.25,-2.031 0.844,-3.047c0.594,-1.001 1.501,-1.97 2.719,-2.876z"></path></g></g></g></svg>