<svg version="1.1" xmlns="http://www.w3.org/2000/svg" xmlns:xlink="http://www.w3.org/1999/xlink" width="800px" height="800px" viewBox="0,0,256,256"><g fill="none" fill-rule="nonzero" stroke="none" stroke-width="2" stroke-linecap="round" stroke-linejoin="round" stroke-miterlimit="10" stroke-dasharray="" stroke-dashoffset="0" font-family="none" font-weight="none" font-size="none" text-anchor="none" style="mix-blend-mode: normal"><g transform="translate(0.05862,0.01393) scale(10.66667,10.66667)"><path d="M12,13v8M10,21h4" id="secondary" stroke="#2ca9bc"></path><path d="M11.67,6.26l8,6.12c0.4211,0.31868 0.52182,0.90986 0.23,1.35l-1.19,1.75c-0.29656,0.43934 -0.88442,0.57095 -1.34,0.3l-8.65,-5.13zM5.67,10.32c0.83272,0.55303 1.84233,0.77421 2.83,0.62l3.3,-4.87c-0.22864,-0.97368 -0.81376,-1.82639 -1.64,-2.39c-1.83359,-1.23436 -4.32064,-0.74859 -5.555,1.085c-1.23436,1.83359 -0.74859,4.32064 1.085,5.555z" id="primary" stroke="#ffffff"></path><path d="M7.96,11.77l4.47,-6.63" id="secondary-2" stroke="#2ca9bc"></path></g></g></svg>