<svg version="1.1" xmlns="http://www.w3.org/2000/svg" xmlns:xlink="http://www.w3.org/1999/xlink" width="800px" height="800px" viewBox="0,0,256,256"><g fill="#ffffff" fill-rule="nonzero" stroke="none" stroke-width="1" stroke-linecap="butt" stroke-linejoin="miter" stroke-miterlimit="10" stroke-dasharray="" stroke-dashoffset="0" font-family="none" font-weight="none" font-size="none" text-anchor="none" style="mix-blend-mode: normal"><g transform="translate(0.1923,-2.5232) scale(10.66667,10.66667)"><path d="M17.5291,7.77c-0.07,-0.01 -0.14,-0.01 -0.21,0c-1.55,-0.05 -2.78,-1.32 -2.78,-2.88c0,-1.59 1.29,-2.89 2.89,-2.89c1.59,0 2.89,1.29 2.89,2.89c-0.01,1.56 -1.24,2.83 -2.79,2.88z"></path><path d="M20.7916,14.7004c-1.12,0.75 -2.69,1.03 -4.14,0.84c0.38,-0.82 0.58,-1.73 0.59,-2.69c0,-1 -0.22,-1.95 -0.64,-2.78c1.48,-0.2 3.05,0.08 4.18,0.83c1.58,1.04 1.58,2.75 0.01,3.8z"></path><path d="M6.44016,7.77c0.07,-0.01 0.14,-0.01 0.21,0c1.55,-0.05 2.78,-1.32 2.78,-2.88c0,-1.6 -1.29,-2.89 -2.89,-2.89c-1.59,0 -2.88,1.29 -2.88,2.89c0,1.56 1.23,2.83 2.78,2.88z"></path><path d="M6.55109,12.8506c0,0.97 0.21,1.89 0.59,2.72c-1.41,0.15 -2.88,-0.15 -3.96,-0.86c-1.58,-1.05 -1.58,-2.76 0,-3.81c1.07,-0.72 2.58,-1.01001 4,-0.85c-0.41,0.84 -0.63,1.79 -0.63,2.8z"></path><path d="M12.1208,15.87c-0.08,-0.01 -0.17,-0.01 -0.26,0c-1.84,-0.06 -3.31002,-1.57 -3.31002,-3.43c0.01,-1.9 1.54002,-3.44 3.45002,-3.44c1.9,0 3.44,1.54 3.44,3.44c-0.01,1.86 -1.47,3.37 -3.32,3.43z"></path><path d="M8.87078,17.9406c-1.51,1.01 -1.51,2.67 0,3.67c1.72002,1.15 4.54002,1.15 6.26002,0c1.51,-1.01 1.51,-2.67 0,-3.67c-1.71,-1.15 -4.53,-1.15 -6.26002,0z"></path></g></g></svg>